<svg width="6487" height="363" viewBox="0 0 6487 363" fill="none" xmlns="http://www.w3.org/2000/svg">
<line x1="387" y1="174" x2="6281" y2="174" stroke="white" stroke-width="10"/>
<path d="M165.021 62L20 309H320L165.021 62Z" stroke="white" stroke-width="10"/>
<path d="M328 197V227H268" stroke="white" stroke-width="10"/>
<path d="M5 197V227H65" stroke="white" stroke-width="10"/>
<path d="M227 312V358H260" stroke="white" stroke-width="10"/>
<path d="M106 312V358H74" stroke="white" stroke-width="10"/>
<rect x="120" y="67" width="94" height="17" fill="white" stroke="white" stroke-width="10"/>
<rect x="144" y="5" width="45" height="52" fill="white" stroke="white" stroke-width="10"/>
<path d="M85 200C85 200 127.513 152.046 166.377 152C205.319 151.954 248 200 248 200" stroke="white" stroke-width="10"/>
<path d="M248 194C248 194 205.748 242.953 167.122 243C128.419 243.047 86 194 86 194" stroke="white" stroke-width="10"/>
<mask id="path-11-inside-1_53_227" fill="white">
<ellipse cx="169" cy="197.5" rx="9" ry="38.5"/>
</mask>
<ellipse cx="169" cy="197.5" rx="9" ry="38.5" fill="#D9D9D9"/>
<path d="M178 197.5H168C168 207.599 167.035 216.424 165.626 222.447C164.904 225.539 164.188 227.346 163.751 228.137C163.531 228.536 163.63 228.216 164.227 227.693C164.889 227.114 166.53 226 169 226V236V246C172.713 246 175.567 244.348 177.4 242.742C179.17 241.194 180.399 239.361 181.255 237.812C182.972 234.707 184.195 230.876 185.101 227C186.951 219.089 188 208.664 188 197.5H178ZM169 236V226C171.47 226 173.111 227.114 173.773 227.693C174.37 228.216 174.469 228.536 174.249 228.137C173.812 227.346 173.096 225.539 172.374 222.447C170.965 216.424 170 207.599 170 197.5H160H150C150 208.664 151.049 219.089 152.899 227C153.805 230.876 155.028 234.707 156.745 237.812C157.601 239.361 158.83 241.194 160.6 242.742C162.433 244.348 165.287 246 169 246V236ZM160 197.5H170C170 187.401 170.965 178.576 172.374 172.553C173.096 169.461 173.812 167.654 174.249 166.863C174.469 166.464 174.37 166.784 173.773 167.307C173.111 167.886 171.47 169 169 169V159V149C165.287 149 162.433 150.652 160.6 152.258C158.83 153.806 157.601 155.639 156.745 157.188C155.028 160.293 153.805 164.124 152.899 168C151.049 175.911 150 186.336 150 197.5H160ZM169 159V169C166.53 169 164.889 167.886 164.227 167.307C163.63 166.784 163.531 166.464 163.751 166.863C164.188 167.654 164.904 169.461 165.626 172.553C167.035 178.576 168 187.401 168 197.5H178H188C188 186.336 186.951 175.911 185.101 168C184.195 164.124 182.972 160.293 181.255 157.188C180.399 155.639 179.17 153.806 177.4 152.258C175.567 150.652 172.713 149 169 149V159Z" fill="white" mask="url(#path-11-inside-1_53_227)"/>
<path d="M6389.19 191.125C6395.78 191.125 6401.11 185.786 6401.11 179.201C6401.11 172.616 6395.78 167.278 6389.19 167.278C6382.61 167.278 6377.27 172.616 6377.27 179.201C6377.27 185.786 6382.61 191.125 6389.19 191.125Z" fill="white"/>
<path d="M6483.4 176.22H6454.62C6453.69 172.635 6451.08 169.696 6447.43 168.372L6415.67 156.918L6442.37 130.225C6443.53 129.058 6443.53 127.172 6442.37 126.015C6441.2 124.847 6439.31 124.847 6438.16 126.015L6411.46 152.707L6400.01 120.949C6398.7 117.301 6395.76 114.706 6392.17 113.758V84.9808C6392.17 83.3341 6390.84 82 6389.19 82C6387.54 82 6386.21 83.3341 6386.21 84.9808V113.758C6382.62 114.706 6379.69 117.301 6378.37 120.949L6366.92 152.707L6340.23 126.015C6339.06 124.847 6337.17 124.847 6336.01 126.015C6334.85 127.182 6334.85 129.068 6336.01 130.225L6362.71 156.918L6330.95 168.372C6327.3 169.685 6324.71 172.625 6323.76 176.22H6294.98C6293.33 176.22 6292 177.554 6292 179.201C6292 180.848 6293.33 182.182 6294.98 182.182H6323.76C6324.71 185.767 6327.3 188.707 6330.95 190.02L6362.71 201.474L6336.01 228.167C6334.85 229.334 6334.85 231.22 6336.01 232.377C6336.6 232.961 6337.36 233.253 6338.12 233.253C6338.88 233.253 6339.64 232.961 6340.23 232.377L6366.92 205.685L6378.37 237.443C6379.69 241.091 6382.62 243.686 6386.21 244.634V273.411C6386.21 275.058 6387.54 276.392 6389.19 276.392C6390.84 276.392 6392.17 275.058 6392.17 273.411V244.634C6395.76 243.686 6398.7 241.091 6400.01 237.443L6411.46 205.685L6438.16 232.377C6438.74 232.961 6439.5 233.253 6440.26 233.253C6441.02 233.253 6441.78 232.961 6442.37 232.377C6443.53 231.21 6443.53 229.323 6442.37 228.167L6415.67 201.474L6447.43 190.02C6451.08 188.707 6453.68 185.767 6454.62 182.182H6483.4C6485.05 182.182 6486.38 180.848 6486.38 179.201C6486.38 177.554 6485.05 176.22 6483.4 176.22ZM6445.41 184.423L6413.01 196.117C6409.78 197.284 6407.25 199.807 6406.09 203.038L6394.39 235.441C6393.42 238.141 6391.06 239.1 6389.18 239.1C6387.29 239.1 6384.94 238.141 6383.96 235.441L6372.26 203.038C6371.1 199.807 6368.57 197.284 6365.34 196.117L6332.94 184.423C6330.24 183.454 6329.28 181.088 6329.28 179.212C6329.28 177.336 6330.24 174.97 6332.95 173.99L6365.35 162.296C6368.59 161.128 6371.11 158.606 6372.27 155.375L6383.97 122.971C6384.94 120.272 6387.29 119.313 6389.17 119.302H6389.18H6389.19C6391.07 119.313 6393.42 120.272 6394.39 122.961L6406.09 155.365C6407.25 158.596 6409.78 161.118 6413.01 162.285L6445.41 173.979C6448.11 174.949 6449.07 177.315 6449.07 179.201C6449.07 181.088 6448.11 183.443 6445.41 184.423Z" fill="white"/>
</svg>
